<svg xmlns="http://www.w3.org/2000/svg" viewBox="0 0 640 480" fill="none" role="img">
<title>Codexa no results</title>
<g stroke="#242018" stroke-width="3" stroke-linecap="round" stroke-linejoin="round">
<path d="M150 112h254l58 58v184H150zM404 112v58h58M184 170h166M184 192h132M184 214h152M184 248h196M184 270h164"/>
<g stroke="#B08A4A" stroke-width="2.5"><circle cx="301" cy="256" r="85"/><path d="M361 316l54 54"/></g>
<path d="M286 228c18 0 32 14 32 32s-14 32-32 32-32-14-32-32 14-32 32-32zM276 250l7 7 14-18" stroke="#242018" stroke-width="2"/>
<g stroke="#665F53" stroke-width="1.5"><path d="M184 148h88M184 230h110"/></g></g>
</svg>